<?xml version="1.0" encoding="utf-8"?>
<!-- Generator: Adobe Illustrator 24.1.3, SVG Export Plug-In . SVG Version: 6.00 Build 0)  -->
<svg version="1.1" id="Layer_1" xmlns="http://www.w3.org/2000/svg" xmlns:xlink="http://www.w3.org/1999/xlink" x="0px" y="0px"
	 viewBox="0 0 750.3 93.2" style="enable-background:new 0 0 750.3 93.2;" xml:space="preserve">
<style type="text/css">
	.st0{clip-path:url(#SVGID_2_);}
	.st1{fill:#344756;enable-background:new    ;}
	.st2{fill:#3F6587;enable-background:new    ;}
	.st3{fill:#91BAD5;enable-background:new    ;}
	.st4{fill:#EBB04B;enable-background:new    ;}
	.st5{fill:#E16C33;enable-background:new    ;}
</style>
<g>
	<defs>
		<path id="SVGID_1_" d="M38.5,73.5L25.1,53.2L18,61.9l0.4,25.4c0,0.7-0.6,1.3-1.3,1.3h-16c-0.7,0-1.3-0.6-1.3-1.3l0.6-40.7L-0.2,6
			c0-0.7,0.6-1.3,1.3-1.3h16c0.7,0,1.3,0.6,1.3,1.3L18,39.9L42.5,5.8c0.4-0.6,1.2-1.1,2-1.1h19c0.6,0,0.8,0.6,0.5,1.1L36.8,38.9
			l33.7,48.7c0.2,0.5,0,1.1-0.6,1.1H50c-0.8,0-1.6-0.5-2-1.1L38.5,73.5z M107,59.5H92.6l0.5,27.8c0,0.7-0.6,1.3-1.3,1.3H75.7
			c-0.7,0-1.3-0.6-1.3-1.3L75,46.7L74.4,6c0-0.7,0.6-1.3,1.3-1.3h31.4c20.3,0,31.9,9.1,31.9,27C139.1,49.3,127.1,59.5,107,59.5z
			 M107.9,18h-15l-0.4,28.2h15.8c7.1,0,13.1-4.1,13.1-14.2C121.4,22.5,116.5,18,107.9,18z M147,88.7c-0.7,0-1.3-0.6-1.3-1.3
			l0.7-40.7L145.7,6c0-0.7,0.6-1.3,1.3-1.3h16c0.7,0,1.3,0.6,1.3,1.3l-0.7,40.7l0.7,40.7c0,0.7-0.6,1.3-1.3,1.3H147z M235.2,90.5
			c-25.8,0-41.8-17.9-41.8-43.4c0-26.8,16.3-44.2,41.6-44.2c18,0,32.6,7.4,37.6,29.6c0.1,0.7-0.4,1.3-1.1,1.3h-15.2
			c-0.7,0-1.4-0.5-1.6-1.3c-2.5-10-9.1-15.6-19.9-15.6c-14.6,0-22.6,11.3-22.6,30s8.2,29.5,22.4,29.5c11.6,0,18-6.2,20.3-17.5
			c0.1-0.7,0.8-1.3,1.6-1.3h15.6c0.7,0,1.2,0.6,1.1,1.3C268.5,81.7,254.9,90.5,235.2,90.5z M323.1,88.7c-0.7,0-1.3-0.6-1.3-1.3
			l0.2-5.9c-4.3,5.3-10.4,8.4-18.2,8.4c-17.5,0-26.8-13.9-26.8-31.9c0-17.9,10.3-32.3,27.1-32.3c7.7,0,13.7,2.8,17.9,7.9l-0.2-5.4
			c-0.1-0.7,0.5-1.3,1.2-1.3h15.6c0.7,0,1.3,0.6,1.3,1.3l-0.5,29.6l0.5,29.5c0,0.7-0.6,1.3-1.3,1.3H323.1z M308.9,77.9
			c8.8,0,13.3-6.6,13.6-19.7c0.1-13.2-4.7-20.4-13.2-20.5c-9.1-0.2-13.8,6.6-13.8,19.3C295.4,70.9,300.2,78,308.9,77.9z M348.8,88.7
			c-0.7,0-1.3-0.6-1.3-1.3l0.6-40.7L347.5,6c0-0.7,0.6-1.3,1.3-1.3h15.4c0.7,0,1.3,0.6,1.3,1.3l-0.6,40.7l0.6,40.7
			c0,0.7-0.6,1.3-1.3,1.3H348.8z M403.3,90.3c-19.8,0-31.6-12.6-31.6-32.3s11.8-32.6,31.9-32.6c15.8,0,26,8.9,27.6,22.2
			c0.1,0.7-0.5,1.3-1.2,1.3h-14c-0.7,0-1.4-0.5-1.6-1.3c-1.3-6.7-5.8-10.1-10.8-10.1c-9.1,0.1-13.4,6.7-13.4,20.4
			c0,14.2,4.4,20.3,13.4,20.4c6,0.1,10.6-4.1,11.4-12c0.1-0.7,0.7-1.3,1.4-1.3h14.4c0.7,0,1.3,0.6,1.2,1.3
			C430.7,80.2,419.4,90.3,403.3,90.3z M458.7,90.1c-13.1,0-21.5-8.9-21.5-24v-13l-0.4-25c0-0.7,0.6-1.3,1.3-1.3h15.6
			c0.7,0,1.3,0.6,1.3,1.3l-0.4,25v12.7c0,6.7,4.1,11,9.5,11c6.5,0,13.4-6,13.4-19.2v-4.6l-0.2-25c0-0.7,0.6-1.3,1.3-1.3h15.8
			c0.7,0,1.3,0.6,1.3,1.3l-0.5,28.3l0.2,30.8c0,0.7-0.6,1.3-1.3,1.3h-14.8c-0.7,0-1.3-0.6-1.2-1.3l0.2-6.5
			C474.5,86.3,467.4,90.1,458.7,90.1z M504.9,88.7c-0.7,0-1.3-0.6-1.3-1.3l0.6-40.7L503.6,6c0-0.7,0.6-1.3,1.3-1.3h15.4
			c0.7,0,1.3,0.6,1.3,1.3L521,46.7l0.6,40.7c0,0.7-0.6,1.3-1.3,1.3H504.9z M573.9,88.7c-0.7,0-1.3-0.6-1.3-1.3l0.2-5.9
			c-4.3,5.3-10.4,8.4-18.2,8.4c-17.5,0-26.8-13.9-26.8-31.9c0-17.9,10.3-32.3,27.1-32.3c7.7,0,13.7,2.8,17.9,7.9l-0.2-5.4
			c-0.1-0.7,0.5-1.3,1.2-1.3h15.6c0.7,0,1.3,0.6,1.3,1.3l-0.5,29.6l0.5,29.5c0,0.7-0.6,1.3-1.3,1.3H573.9z M559.7,77.9
			c8.8,0,13.3-6.6,13.6-19.7c0.1-13.2-4.7-20.4-13.2-20.5c-9.1-0.2-13.8,6.6-13.8,19.3C546.2,70.9,551,78,559.7,77.9z M636,86.2
			c0,0.7-0.6,1.6-1.2,1.8c-3.5,1.1-7.3,1.9-11,1.9c-10.4,0-20.4-5.3-20.4-19.3l0.1-31h-6.7c-0.7,0-1.3-0.6-1.3-1.3V28.2
			c0-0.7,0.6-1.3,1.3-1.3h6.6l-0.1-14.2c0-0.7,0.6-1.3,1.3-1.3h15.6c0.7,0,1.3,0.6,1.3,1.3l-0.1,14.2h13.4c0.7,0,1.3,0.6,1.3,1.3
			v10.1c0,0.7-0.6,1.3-1.3,1.3h-13.6l0.1,30.5c0,5.3,2.6,7,6.6,7c2.8,0,4.9-0.5,6.7-1c0.7-0.1,1.3,0.4,1.3,1V86.2z M669.8,90.3
			C649.7,90.3,638,77.7,638,58s11.6-32.6,31.8-32.6s31.6,12.6,31.6,32.3S690,90.3,669.8,90.3z M669.8,78.3c8.9,0,13.1-6.1,13.1-20.3
			c0-13.9-4.3-20.6-13.2-20.6c-9.1,0.1-13.3,6.8-13.3,20.8S660.8,78.3,669.8,78.3z M708.2,88.7c-0.7,0-1.3-0.6-1.3-1.3l0.5-29.6
			l-0.5-29.5c0-0.7,0.6-1.3,1.3-1.3h15.4c0.7,0,1.3,0.6,1.2,1.3l-0.4,9.1c4.8-7.3,13.1-10.9,22.1-10.9c0.8,0,1.7,0.1,2.5,0.2
			c0.7,0.1,1.3,0.8,1.3,1.6v10.7c0,0.7-0.6,1.2-1.3,1.2c-0.6-0.1-1.4-0.1-2-0.1c-12.7,0-22.1,7.1-22.1,21.2l0.1,26.2
			c0,0.7-0.6,1.3-1.3,1.3H708.2z"/>
	</defs>
	<clipPath id="SVGID_2_">
		<use xlink:href="#SVGID_1_"  style="overflow:visible;"/>
	</clipPath>
	<g class="st0">
		<rect x="-52" y="-44.3" class="st1" width="168" height="190"/>
		<rect x="116" y="-44.3" class="st2" width="168" height="190"/>
		<rect x="284" y="-44.3" class="st3" width="168" height="190"/>
		<rect x="451" y="-44.3" class="st4" width="168" height="190"/>
		<rect x="619" y="-44.3" class="st5" width="168" height="190"/>
	</g>
</g>
</svg>
